<svg xmlns="http://www.w3.org/2000/svg" xmlns:xlink="http://www.w3.org/1999/xlink" version="1.1" x="0px" y="0px" viewBox="0 0 512 640" enable-background="new 0 0 512 512" xml:space="preserve"><path d="M469.988,249.321c-1.829-5.729-6.047-10.38-11.576-12.76c-5.495-2.363-11.729-2.24-17.101,0.345  c-9.48,4.562-23.188,12.654-36.52,25.579c-14.288-4.419-27.916-11.616-40.043-19.62c-5.134-27.169-17.755-73.796-45.694-90.677  c-28.457-17.191-54.038-9.232-67.443-2.428c-12.374-5.603-26.279-9.896-41.605-11.372c-1.531-0.147-3.044-0.223-4.565-0.33  c-3.653-35.863-34.03-63.938-70.842-63.938h-12.474c-38.667,0-70.167,30.994-71.12,69.436c-9.397,3.254-16.207,12.097-16.207,22.586  c0,13.232,10.764,23.997,23.995,23.997c13.232,0,23.997-10.765,23.997-23.997c0-10.425-6.724-19.229-16.032-22.531  c0.918-29.777,25.369-53.734,55.367-53.734H134.6c27.977,0,51.118,20.843,54.864,47.804c-15.267,0.374-29.949,2.836-43.825,7.466  c-4.042,1.35-7.403,4.339-9.221,8.198c-1.82,3.867-1.983,8.368-0.444,12.352l3.821,9.892l-24.186,9.681  c-4.038,1.615-6.003,6.2-4.385,10.241c1.231,3.079,4.189,4.952,7.315,4.952c0.974,0,1.965-0.183,2.926-0.567l24.008-9.609  l4.697,12.159l-13.063,5.229c-4.041,1.615-6.003,6.201-4.385,10.241c1.233,3.079,4.189,4.952,7.315,4.952  c0.974,0,1.965-0.183,2.925-0.567l12.885-5.158l5.253,13.601l-6.481,2.595c-4.04,1.615-6.003,6.2-4.385,10.24  c1.231,3.08,4.189,4.953,7.315,4.953c0.974,0,1.965-0.183,2.925-0.567l6.303-2.523l10.952,28.354h-41.214v-7.223  c0-4.351-3.528-7.879-7.878-7.879c-4.351,0-7.878,3.528-7.878,7.879v7.223h-14.578v-13.945c0-4.35-3.528-7.878-7.878-7.878  c-4.35,0-7.878,3.528-7.878,7.878v13.945H77.392v-25.577c0-4.351-3.528-7.878-7.878-7.878s-7.878,3.527-7.878,7.878v25.577h-5.515  c-7.142,0-13.035,5.809-13.14,12.951l-0.035,2.534c0,81.233,65.871,146.489,149.962,148.56c1.143,0.028,2.275,0.041,3.405,0.041  c58.497,0,97.498-37.283,113.372-55.986c6.783,4.981,15.123,7.963,24.164,7.963c22.586,0,40.962-18.377,40.962-40.962  c0-6.519-1.57-12.664-4.292-18.142c11.947-5.139,22.903-7.621,31.74-8.711c0.769-0.095,1.521-0.236,2.27-0.388  c6.026,4.425,22.799,16.114,42.002,24.072c2.574,1.066,5.273,1.597,7.964,1.597c3.546,0,7.071-0.92,10.266-2.739  c5.587-3.183,9.313-8.651,10.224-15.003C477.895,309.222,479.394,278.771,469.988,249.321z M67.034,166.143  c0,4.544-3.697,8.24-8.24,8.24c-4.544,0-8.239-3.696-8.239-8.24c0-0.796,0.149-1.55,0.36-2.278c0.996-3.431,4.13-5.96,7.878-5.96  c3.745,0,6.879,2.525,7.878,5.953C66.884,164.588,67.034,165.345,67.034,166.143z M200.777,204.814  c-5.96,0-10.792-4.832-10.792-10.792s4.832-10.791,10.792-10.791s10.792,4.831,10.792,10.791S206.737,204.814,200.777,204.814z   M269.893,159.523c10.784-2.889,25.342-3.318,41.016,6.153c17.156,10.364,28.161,38.243,34.529,62.958  c-10.904-8.871-19.516-17.276-24.678-22.634v-0.002c-2.859-2.968-5.812-6.289-9.289-10.454  C305.734,188.68,291.25,172.868,269.893,159.523z M333.848,374.1c-5.321,0-10.255-1.668-14.327-4.494  c3.397-4.112,6.729-7.787,10.067-11.045c9.001-8.783,18.09-15.498,26.898-20.678c1.628,3.332,2.567,7.059,2.567,11.011  C359.054,362.792,347.746,374.1,333.848,374.1z M459.384,327.348c-0.292,2.049-1.644,3.102-2.424,3.545  c-1.356,0.771-2.964,0.873-4.398,0.277c-13.018-5.395-25.011-12.826-32.574-17.934c5.365-5.473,8.661-12.946,8.661-21.115  c0-8.438-3.476-16.16-9.312-21.719c10.653-9.531,21.246-15.661,28.806-19.296c1.726-0.833,3.273-0.407,4.038-0.073  c0.785,0.339,2.194,1.189,2.799,3.08C463.923,282.119,461.578,312.018,459.384,327.348z"/></svg>
