<svg xmlns="http://www.w3.org/2000/svg" data-name="Layer 1" viewBox="0 0 100 125" x="0px" y="0px"><title>Artboard 3</title><path d="M11.29,47.41c.26.32.5.65.78.94l.43.43.4.38.72.64,2.82,2.54a6.42,6.42,0,0,1,1.88,3.84,5.6,5.6,0,0,1,0,.73c0,.27,0,.43,0,.82L18,61.84c0,.29,0,.83,0,1.27a13.71,13.71,0,0,0,.11,1.37,10.48,10.48,0,0,0,.79,2.65,10,10,0,0,0,1.64,2.55c-1.68,2.83-3.79,6.93-6.11,11.74l-1,2-.48,1-.25.55a5.06,5.06,0,0,0-.33,1.13,4.91,4.91,0,0,0,1.54,4.41,5,5,0,0,0,4.68,1.13l.27-.07.14,0,.29-.09.57-.18L21,90.89l2.33-.75,2.34-.77.25-.08.23.47L27.26,92l1.08,2.19.54,1.08a13.05,13.05,0,0,0,.77,1.42A5,5,0,0,0,34,98.78a5,5,0,0,0,4-2.44c.09-.17.18-.34.26-.51s.08-.2.13-.32l.21-.53.41-1,.8-2.05c1.71-4.45,3.12-8.39,4.06-11.43a11.11,11.11,0,0,0,1.81,1,10.62,10.62,0,0,0,10-1c.94,3,2.34,7,4,11.38l.8,2.05.41,1,.21.53c0,.11,0,.13.13.32s.17.34.26.51a5,5,0,0,0,4,2.44,5,5,0,0,0,4.35-2.11,13,13,0,0,0,.77-1.42l.54-1.08L72.29,92l1.08-2.21.23-.47.25.08,2.34.77,2.33.75,1.15.37.57.18.29.09.14,0,.27.07a5,5,0,0,0,4.68-1.13,4.91,4.91,0,0,0,1.54-4.41A5.06,5.06,0,0,0,86.84,85l-.25-.55-.48-1-1-2c-2.27-4.71-4.34-8.74-6-11.56a11.06,11.06,0,0,0,1.55-2.22,10.92,10.92,0,0,0,1-2.92,11.74,11.74,0,0,0,.16-1.53c0-.49,0-1.09,0-1.41l-.3-4.48a6.05,6.05,0,0,1,.65-3A6.21,6.21,0,0,1,83,53a7,7,0,0,1,.57-.56l.85-.75,1.69-1.49.84-.74c.29-.26.7-.66,1-1a10.54,10.54,0,0,0,1.82-11.11,10.27,10.27,0,0,0-1.52-2.5,9,9,0,0,0-1-1.06L87,33.49l-.21-.18L86.4,33,83.22,30.2a6.22,6.22,0,0,1-1.62-2.54,6.3,6.3,0,0,1-.31-1.48,5.74,5.74,0,0,1,0-.75l.05-1,.12-2.09.06-1c0-.36,0-.64,0-1.14A10.25,10.25,0,0,0,71.74,9.72c-.42,0-.87,0-1.25,0l-1,.08L67.59,10l-1.87.14a6.54,6.54,0,0,1-4-1,6.76,6.76,0,0,1-1.07-.86L60.42,8l-.3-.34L59.51,7,57.09,4.3a9.83,9.83,0,0,0-7.67-3.07,9.73,9.73,0,0,0-6.88,3.38L40.6,6.93,39.67,8a9.14,9.14,0,0,1-.81.9,7.31,7.31,0,0,1-3.91,1.9,11.24,11.24,0,0,1-2.23.05l-2.35-.07a1.41,1.41,0,0,0-1.53,1.34,1.44,1.44,0,0,0,1.35,1.33l2.34.24a13.73,13.73,0,0,0,2.75.1,10.35,10.35,0,0,0,5.78-2.4,12.43,12.43,0,0,0,1.17-1.15l1-1.07,2-2.2a6,6,0,0,1,4.31-1.89,5.84,5.84,0,0,1,4.47,2l2.26,2.66.58.69.29.35.38.42a11.07,11.07,0,0,0,1.73,1.48,11,11,0,0,0,4.28,1.78,11.08,11.08,0,0,0,2.37.17l2-.1,1.94-.1,1-.05h.71a5.62,5.62,0,0,1,2.6.86A5.43,5.43,0,0,1,76.61,20c0,.19,0,.6-.05.93l-.08,1-.16,2.09-.08,1.1a10.73,10.73,0,0,0,0,1.36,11.35,11.35,0,0,0,3.38,7.35l.49.46.4.36.81.72L83,36.87l.41.36.2.18.13.13a3.94,3.94,0,0,1,.49.54,5,5,0,0,1,.74,1.25,5.23,5.23,0,0,1,.31,2.88A5.16,5.16,0,0,1,84,44.83c-.19.19-.31.31-.58.55l-.85.74-1.7,1.47-.85.74a12.45,12.45,0,0,0-1,1,11.6,11.6,0,0,0-1.67,2.43A11.47,11.47,0,0,0,76,57.51l.29,4.61c0,.44,0,.61,0,.87a6.43,6.43,0,0,1-.08.74,5.47,5.47,0,0,1-.47,1.4,5.18,5.18,0,0,1-4.9,2.79l-4.57-.3a11.63,11.63,0,0,0-5.8,1.05A11.32,11.32,0,0,0,58,70.29a10.82,10.82,0,0,0-1.08,1l-.43.48-.38.43L54.64,74c-.48.55-1.07,1.24-1.35,1.5a5.18,5.18,0,0,1-5.51,1,4.91,4.91,0,0,1-1.26-.75,4.31,4.31,0,0,1-.54-.5c-.07-.06-.21-.22-.33-.36l-.37-.42L43.8,72.77l-.74-.83-.39-.44c-.17-.17-.32-.36-.5-.52a11.4,11.4,0,0,0-7.75-3.25c-.24,0-.47,0-.71,0l-.35,0-.27,0L32,67.84,29.83,68l-1.08.08c-.3,0-.5,0-.75,0A5.31,5.31,0,0,1,23.47,65,5.47,5.47,0,0,1,23,63.68c0-.24-.06-.47-.07-.71s0-.41,0-.81l.23-4.11c0-.29,0-.8,0-1.22a10.39,10.39,0,0,0-.1-1.29,11.19,11.19,0,0,0-3.44-6.63c-.33-.31-.56-.5-.81-.71l-.74-.63-1.47-1.26-.73-.62a3.91,3.91,0,0,1-.3-.27l-.25-.23c-.17-.16-.29-.34-.45-.51l-.38-.55A5.76,5.76,0,0,1,14.23,39a6,6,0,0,1,1.53-2.11l2.55-2.32c.42-.39.8-.71,1.33-1.24a10.78,10.78,0,0,0,2.8-5.2,11.2,11.2,0,0,0,.24-1.9,14,14,0,0,0-.08-1.77l-.27-3c0-.47-.11-1-.12-1.4a6.75,6.75,0,0,1,0-1.12,6.3,6.3,0,0,1,1.85-3.76,5.91,5.91,0,0,1,1.63-1.17,6,6,0,0,1,1.82-.6,1.68,1.68,0,0,0,.9-.5,1.5,1.5,0,0,0,.41-1,1.39,1.39,0,0,0-1.64-1.22A9.21,9.21,0,0,0,22,13a9.43,9.43,0,0,0-3.13,5.55,10,10,0,0,0-.13,1.73c0,.59,0,1,0,1.51l.13,3a10.35,10.35,0,0,1,0,1.33,7.52,7.52,0,0,1-.21,1.22,6.87,6.87,0,0,1-1.07,2.27,10.06,10.06,0,0,1-2,2L13,33.77a10.24,10.24,0,0,0-2.71,3.51,10,10,0,0,0-.91,4.52,10.18,10.18,0,0,0,1.25,4.58C10.84,46.73,11.05,47.08,11.29,47.41ZM82.16,86.89s0,0,0,0a.21.21,0,0,1,0-.07ZM58.75,77.55l1.51-1.71.38-.43L61,75a5.39,5.39,0,0,1,.57-.54,5.86,5.86,0,0,1,1.33-.84A6.11,6.11,0,0,1,66,73.11l4.58.3A10.62,10.62,0,0,0,76.5,72l.22-.14c.93,3,2.34,7,4,11.41l.8,2.05.41,1-4-1.41-2.33-.8L75,84l-.15,0-.31-.09a4.72,4.72,0,0,0-.69-.14,4.88,4.88,0,0,0-4.79,2.38l-.17.31-.08.16-.13.28-.27.56-1.05,2.23-1,2.21-.51,1.1-.13.29L64.16,90c-2.29-4.78-4.39-8.86-6.06-11.69ZM26.43,89.13h0ZM22.9,71.7a10.5,10.5,0,0,0,4.79,1.56c.46,0,1,0,1.4,0l1.08-.06,2.17-.13L33.44,73l.27,0h.58a6.13,6.13,0,0,1,4.15,1.79c.1.09.18.19.27.28l.35.39.73.84L41.24,78l.24.28C39.81,81.09,37.7,85.18,35.4,90l-.95,2L34,93l-.11.23-.14-.3-.51-1.1-1-2.21-1.05-2.23-.27-.56-.13-.28-.08-.16-.17-.31a4.88,4.88,0,0,0-4.79-2.38,4.72,4.72,0,0,0-.69.14l-.31.09-.15,0-.58.2-2.33.8-2.31.8-1.14.4-.57.2h0l.41-1,.8-2.05C20.54,78.77,22,74.77,22.9,71.7Z"/><path d="M45.34,37.35a1.81,1.81,0,0,0,1.32-1.06,36.3,36.3,0,0,0,1.61-4.56c.43-1.49.84-3,1.29-4.35a9,9,0,0,0,.22-2.06c0-.67-.16-1-.37-.68-.79,1.15-1.77,2.51-2.89,4.17-.94,1.39-1.93,3-2.89,4.74-3.09.31-6.5.69-10.13,1.11a2.34,2.34,0,0,0-1.39,4l.08.08L39,45.62l-1.79,9.66a2.7,2.7,0,0,0,3.91,2.88l0,0,8.59-4.51,8.59,4.49,0,0a2.68,2.68,0,0,0,3.87-2.87l-1.81-9.67c2.59-2.6,4.81-4.86,6.84-7l.09-.09A2.26,2.26,0,0,0,66,34.73c-4.2-.5-7.38-.84-10.17-1.1-1.15-2.11-2.23-3.86-3.15-5.22l-2.58-3.74c-.22-.31-.38.08-.36.86A8.41,8.41,0,0,0,50,27.33c.4,1.2.77,2.51,1.2,4a36.64,36.64,0,0,0,1.8,5,1.78,1.78,0,0,0,1.27,1l.16,0c1.88.37,3.91.75,6.32,1.17-1.48,1.37-3,2.83-4.79,4.47a2.49,2.49,0,0,0-.75,2.19v.07l.9,5.61-5.05-2.7a2.75,2.75,0,0,0-2.56,0h0l-5,2.67.9-5.57,0-.1a2.49,2.49,0,0,0-.76-2.21l-4.71-4.38c2.19-.39,4.28-.76,6.22-1.13Z"/><text x="0" y="115" fill="#000000" font-size="5px" font-weight="bold" font-family="'Helvetica Neue', Helvetica, Arial-Unicode, Arial, Sans-serif">Created by Gregor Cresnar</text><text x="0" y="120" fill="#000000" font-size="5px" font-weight="bold" font-family="'Helvetica Neue', Helvetica, Arial-Unicode, Arial, Sans-serif">from the Noun Project</text></svg>