<svg xmlns="http://www.w3.org/2000/svg" xmlns:xlink="http://www.w3.org/1999/xlink" version="1.1" x="0px" y="0px" viewBox="0 0 64 80" enable-background="new 0 0 64 64" xml:space="preserve"><g><g><path fill-rule="evenodd" clip-rule="evenodd" d="M29.815,27.738c-1.558,0.741-2.637,1.583-4.08,2.88    c-2.805,8.963,12.769,5.806,12.48,0.48C37.997,27.083,30.66,28.583,29.815,27.738z M29.095,32.778    c1.237-2.131,4.115-3.046,6.72-1.92C34.818,33.559,32.209,31.956,29.095,32.778z"/><path fill-rule="evenodd" clip-rule="evenodd" d="M56.935,23.897c-1.674-1.765-2.96-3.92-5.52-4.8    c-0.537-0.78-0.743-2.497-0.72-3.12c-0.196,0.257-1.114-0.792-1.44-1.2c2.931,1.565-0.461,0.02-0.24-1.44    c-1.221-0.421-1.687,0.18-2.64-0.24c0.7,0.067,0.825-0.058,0.479-0.48c-0.64,0-1.279,0-1.92,0c-0.626,1.147-0.646,0.645-1.92,0.48    c-1.26,0.82-2.44,1.72-3.12,3.12c-2.34,0.184-2.831-0.056-4.56,0.96c0.134-0.489,0.722-0.471,0.24-0.96    c-13.35,2.465-24.874,5.963-29.52,17.76c-0.131,0.349,0.28,1.24-0.24,1.2c0,0.479,0,0.96,0,1.439    c1.372,8.67,12.146,10.848,21.12,10.32C40.693,46.13,60.846,38.534,56.935,23.897z M42.775,17.178    c1.546-2.761,5.169-0.361,4.8,2.16C47.175,22.064,41.35,21.854,42.775,17.178z M55.495,28.938    c-0.861,7.627-13.479,13.585-23.28,14.88c-2.077,0.274-4.491,0.475-6.48,0.721c-0.207-0.194-0.143-0.658-0.48-0.721    c0.169,0.831-2.886,0.484-3.36-0.239c-0.709,0.208,0.557,0.358,0.24,0.96c-0.602-0.199-0.759-0.841-1.2-1.2    c-0.878-0.158-0.921,0.52-1.68,0.479c0.127-0.192,0.25-0.39,0.24-0.72c-0.96,0.272-1.519-0.124-2.4,0.48    c-0.021-0.655,0.4-0.483,0-0.96c-3.049-0.206-4.201-2.308-7.44-3.36c0.039-0.281,0.438-0.202,0.72-0.24    c-1.431-3.185-0.947-6.076,1.44-8.88c5.851-6.872,17.756-10.1,28.32-10.32c0.817,4.782,8.127,4.892,10.32,1.44    C52.979,23.125,55.989,24.558,55.495,28.938z"/><path fill-rule="evenodd" clip-rule="evenodd" d="M35.095,23.417c-0.19-0.028-0.275-0.22-0.24-0.48    c-1.215,0.684-2.443,0.131-3.359,0c-1.891,1.578-4.842,0.209-7.2,3.36c-0.038-0.283,0.042-0.682-0.24-0.72    c-0.327,0.89-0.421,0.523-1.44,0.72c-0.599,0.681-0.954,1.605-2.16,1.68c-0.797,1.959-2.913,2.559-2.4,5.28    c-1.443,0.938,0.575,3.148,1.44,4.8c0.28,0.535,0.182,1.412,0.48,1.92c0.871,1.484,3.811,2.481,6,0.72    c2.216,0.352,4.116-0.537,5.52-0.239c5.99-2.027,13.807-3.689,14.399-9.84C46.408,25.293,40.627,24.242,35.095,23.417z     M23.575,39.018c-0.673-0.416-0.225-0.629-0.24-1.439c1.071,0.105,0.357,0.506,0.72,1.199    C23.776,38.738,23.628,38.831,23.575,39.018z M28.855,37.817c0-0.239,0-0.479,0-0.72c-0.441,0.815-0.987,0.134-1.68,0.48    c0.693-1.063-1.487-0.865-0.72-2.16c-0.755-0.715-3.023-2.253-4.56-0.48c-1.484-1.201,0.221-3.342,0.96-4.08    c3.036-3.032,10.664-5.022,15.12-4.8c1.981,0.099,5.843,1.282,5.761,4.08C43.591,34.999,34.417,38.069,28.855,37.817z"/></g></g><text x="0" y="79" fill="#000000" font-size="5px" font-weight="bold" font-family="'Helvetica Neue', Helvetica, Arial-Unicode, Arial, Sans-serif">Created by Ralf Schmitzer</text><text x="0" y="84" fill="#000000" font-size="5px" font-weight="bold" font-family="'Helvetica Neue', Helvetica, Arial-Unicode, Arial, Sans-serif">from the Noun Project</text></svg>