<svg xmlns="http://www.w3.org/2000/svg" xmlns:xlink="http://www.w3.org/1999/xlink" version="1.1" x="0px" y="0px" viewBox="0 0 100 125" style="enable-background:new 0 0 100 100;" xml:space="preserve"><style type="text/css">
	.st0{fill:#010202;}
</style><g><path class="st0" d="M89.4404297,70.5771484c-7.3242188-3.5771484-12.6455078-14.390625-12.6982422-14.5   c-0.0202026-0.0415649-0.0477905-0.0765381-0.071228-0.1153564c-0.1784668-0.382019-0.3477783-0.7635498-0.5479126-1.1463623   c-4.0166626-7.6818237-11.3076782-13.571228-20.0247192-16.1949463   c-1.7005615-1.0847778-17.9344482-11.5734253-22.4469604-19.2689209c-1.2832031-2.1894531-2.7724609-3.4394531-4.4262695-3.7167969   c-1.2956543-0.2145996-2.2897949,0.2390747-2.8019409,0.5557251c-0.1222534-0.0861206-0.204895-0.1389771-0.2234497-0.1504517   c-0.6049805-0.3730469-1.390625-0.2705078-1.878418,0.2470703c-2.4891968,2.6373291-4.6486206,7.0199585-5.6942139,9.3439941   c-2.0872803-2.6453857-4.2260742-4.1316528-6.3790283-4.3840332c-2.3725586-0.2734375-3.7973633,1.0205078-3.953125,1.1689453   c-0.4248047,0.40625-0.5727539,1.0234375-0.3789062,1.578125c1.6895142,4.840332,6.0339966,12.7969971,6.9102783,14.3835449   c-0.5376587,1.7193604-1.0259399,3.2297974-1.3590088,4.2473145c-0.609375,1.8632812-0.3681641,3.8847656,0.6621094,5.5458984   c2.6439209,4.2625122,7.0712891,10.4210815,8.0053101,11.7139282c0.8568115,3.8361816,1.9022827,7.9156494,3.175354,11.5282593   c0.7299805,2.0712891,2.4926758,3.1416016,4.0473633,4.0859375c0.8012695,0.4863281,1.5576172,0.9453125,2.0170898,1.4560547   c0.006897,0.0076294,0.0154419,0.0126343,0.0223999,0.0200806c0.6046143,0.812439,1.4481201,1.4277344,2.4341431,1.7348022   c4.3056641,1.3427734,9.1923828,2.4257812,14.5239258,3.2177734c5.0805664,0.7558594,9.6635742,2.6279297,13.2524414,5.4111328   c2.4160156,1.875,4.4375,4.0849609,6.0087891,6.5693359c0.2851562,0.4511719,0.7714844,0.6982422,1.2685547,0.6982422   c0.2744141,0,0.5517578-0.0751953,0.8007812-0.2324219c0.7001953-0.4423828,0.9091797-1.3691406,0.4658203-2.0693359   c-1.7578125-2.7792969-4.0126953-5.2470703-6.7050781-7.3359375c-0.9558716-0.741333-1.9765015-1.4203491-3.0474243-2.0418091   c0.5775146-0.1002197,1.0742188-0.2037964,1.4400024-0.288269c0.8076172-0.1875,1.3105469-0.9931641,1.1240234-1.7998047   c-0.1875-0.8066406-0.9892578-1.3056641-1.7998047-1.1240234c-1.1289062,0.2607422-5.0302734,1.0458984-7.8828125,0.2148438   c-0.0175781-0.0050659-0.0351562-0.0053101-0.0527344-0.0097046c-1.4324341-0.406311-2.9100952-0.7329102-4.4311523-0.9590454   c-5.1791992-0.7705078-9.9140625-1.8183594-14.0727539-3.1142578c-0.581543-0.1816406-1.0385742-0.6503906-1.222168-1.2539062   c-1.1347656-3.7236328-3.8237305-13.1943359-4.2905273-20.6796875c-0.0224609-0.3613281,0.1474609-0.71875,0.4550781-0.9570312   c1.9296875-1.4912109,6.8085938-5.1699219,10.4326172-7.1064453c0.1181641-0.0625,0.2529297-0.0917969,0.4038086-0.0830078   c1.6538086,0.0839844,6.8198242,0.4414062,10.4101562,1.7314453c-0.9736328,1.4023438-3.5229492,3.5205078-9.8662109,2.7460938   C40.3876953,50.1728516,39.75,50.5292969,39.4868164,51.140625c-0.7583008,1.7626953-2.1933594,4.5673828-3.0092773,5.2822266   c-0.5615234,0.4912109-0.6738281,1.3251953-0.2661133,1.9501953c0.0219727,0.0341797,2.1899414,3.4101562,1.1918945,6.2011719   c-0.2788086,0.7802734,0.1274414,1.6386719,0.9077148,1.9169922c0.7802734,0.2773438,1.6381836-0.1279297,1.9174805-0.9072266   c0.1390381-0.3889771,0.2391357-0.7800293,0.3088379-1.1696167c0.6969604-0.2363281,2.1626587-0.4353027,4.475708,0.6350098   c0.1752319,0.7706299,0.3903809,2.2660522-0.1365967,3.7211304c-0.2817383,0.7792969,0.1210938,1.6386719,0.8999023,1.9208984   c0.1689453,0.0615234,0.3413086,0.0898438,0.5107422,0.0898438c0.6137695,0,1.1894531-0.3789062,1.4106445-0.9892578   c0.6576538-1.8172607,0.5586548-3.6160278,0.3548584-4.8250732c2.2734985-1.4606934,10.9076538-6.3540039,20.444458-3.3682861   c0.7919922,0.2470703,1.6318359-0.1933594,1.8798828-0.9833984c0.2470703-0.7910156-0.1933594-1.6328125-0.9833984-1.8798828   c-2.9946289-0.9367065-5.8757324-1.1907349-8.5458984-1.0529785c-4.3891602-1.2622681-6.6833496-4.7684326-6.7275391-4.8366699   c-0.4404297-0.7001953-1.3632812-0.9101562-2.0644531-0.4736328c-0.7021484,0.4394531-0.9160156,1.3652344-0.4775391,2.0673828   c0.0805054,0.1286621,1.4170532,2.2180786,4.0380859,4.0315552c-4.387146,1.1005859-7.7060547,3.0054932-9.1518555,3.9430542   c-2.5654297-1.2279663-4.5652466-1.3080444-5.9576416-1.0599365c-0.2560425-1.4786987-0.7895508-2.770813-1.2127686-3.6099854   c0.9814453-1.2988281,1.9345703-3.2011719,2.4960938-4.4091797c10.8466797,0.8808594,12.5351562-5.9755859,12.6025391-6.2783203   c0.1523438-0.671875-0.1728516-1.3603516-0.7880859-1.6699219c-1.3410645-0.675415-2.9833984-1.1766968-4.6655273-1.5533447   c-3.8091431-4.0184937-7.7180176-5.2035522-7.8823242-5.2513428c-0.2104492-0.0625-0.4291992-0.0751953-0.6469727-0.0449219   c-1.1447144,0.1722412-2.2714233,0.381958-3.3762207,0.6137085c-1.8049927-2.1364746-2.3676758-3.6182251-2.369873-3.6244507   c-0.1323242-0.3828125-0.4130859-0.6953125-0.7792969-0.8681641c-3.2351685-1.522644-4.6060791-3.5786133-5.1026001-4.5499878   c1.5855103-2.8601074,2.1075439-5.6029663,1.5254517-8.164856c-0.3049927-1.3424683-0.8771362-2.447998-1.4985352-3.3302612   c0.4367065,0.102417,1.2487183,0.5395508,2.2548828,2.2560425c5.1064453,8.7089844,22.8408203,19.9169922,23.59375,20.390625   c0.0111084,0.006958,0.0236206,0.0088501,0.03479,0.0154419c0.1055298,0.0626221,0.2171021,0.1173706,0.34021,0.1535034   c8.0380859,2.3613281,14.7568359,7.7470703,18.4326172,14.7773438c2.171875,4.1542969,2.9052734,8.3251953,1.9628906,11.1572266   c-0.5751953,1.7275391-2.7724609,4.9912109-6.46875,6.9033203c-0.7353516,0.3798828-1.0234375,1.2851562-0.6425781,2.0214844   c0.2666016,0.515625,0.7900391,0.8105469,1.3330078,0.8105469c0.2324219,0,0.4677734-0.0537109,0.6884766-0.1679688   c4.2050781-2.1748047,7.0615234-5.9931641,7.9355469-8.6201172c0.3381348-1.0147705,0.505249-2.1359253,0.5376587-3.3214111   c2.3939209,3.1380615,5.5787964,6.4597778,9.3129272,8.2833252c0.2119141,0.1035156,0.4365234,0.1523438,0.6572266,0.1523438   c0.5546875,0,1.0888672-0.3095703,1.3486328-0.8417969C90.4931641,71.8388672,90.1845703,70.9404297,89.4404297,70.5771484z    M11.2119141,24.2421875c0.1992188-0.0332031,0.4287109-0.0439453,0.6865234-0.015625   c0.9595947,0.1123657,2.9556885,0.9094238,5.5827026,4.9372559c-0.3903809,1.5722656-0.8953247,3.3763428-1.4251709,5.1738281   C14.6055908,31.598999,12.4782104,27.4292603,11.2119141,24.2421875z M16.6787109,46.5888672   c-0.5625-0.90625-0.6933594-2.0117188-0.3598633-3.03125c1.2744141-3.8935547,3.5380859-11.0322266,4.4711914-15.3720703   c0.3310547-0.8007812,2.3710938-5.6162109,4.8041992-8.7675781c0.6552734,0.6699219,1.4580078,1.7402344,1.7875977,3.1904297   c0.4707031,2.0693359-0.1220703,4.4130859-1.7617188,6.9648438c-0.1269531,0.1972656-0.2055664,0.4208984-0.2299805,0.6542969   c-0.0073242,0.0673828-0.7226562,6.7304688-2.5029297,9.9121094c-0.25,0.4472656-0.2548828,0.9902344-0.0126953,1.4414062   l0.895874,1.6691895c-0.3484497,0.1414185-0.6815186,0.2783813-0.9793701,0.4040527   c-2.0932617,0.8837891-3.2929688,3.140625-2.8520508,5.3642578c0.1391602,0.703125,0.2885742,1.4785156,0.4492188,2.3115234   c0.074707,0.3875732,0.1530151,0.7929688,0.2333374,1.2074585C19.2475586,50.5469971,17.7875366,48.37677,16.6787109,46.5888672z    M40.4926758,41.5595703c0.4677124,0.1771851,1.4710693,0.6115112,2.7046509,1.3964233   c-1.0187988-0.0962524-1.8989258-0.152832-2.5410767-0.1854858c-0.6918945-0.0410156-1.3735352,0.1132812-1.9711914,0.4326172   c-3.6870117,1.9707031-8.3828125,5.4697266-10.8540039,7.3798828c-1.0957031,0.8466797-1.6992188,2.1621094-1.6142578,3.5175781   c0.3792114,6.0773926,2.1372681,13.3182983,3.4475708,18.0361938c-0.7085571-0.4974976-1.2834473-1.0352173-1.5252075-1.7207642   c-2.2426758-6.3662109-3.7851562-14.3623047-4.8051758-19.6542969c-0.1621094-0.8388672-0.3125-1.6181641-0.4526367-2.3251953   c-0.1679688-0.8496094,0.2749023-1.6796875,1.0761719-2.0185547C27.1650391,45.0644531,33.5327148,42.65625,40.4926758,41.5595703z    M32.0830078,37.1152344c0.2754517,0.5899658,0.8085327,1.5687256,1.7183838,2.7940063   c-2.6985474,0.7034302-5.1564331,1.5089111-7.2086792,2.2561035l-0.7045288-1.3128052   c0.9575195-2.0516968,1.5913696-4.7698975,1.9800415-6.9035034C28.8356323,35.0092163,30.1936646,36.1477051,32.0830078,37.1152344   z"/><path class="st0" d="M28.5483398,12.9179688C28.7104492,12.9736328,28.8759766,13,29.0380859,13   c0.6220703,0,1.2036133-0.3896484,1.4179688-1.0107422l1.7133789-4.9609375   c0.2705078-0.7822266-0.1450195-1.6367188-0.9282227-1.9072266c-0.7827148-0.2685547-1.6376953,0.1455078-1.9077148,0.9287109   l-1.7133789,4.9609375C27.3496094,11.7929688,27.7651367,12.6474609,28.5483398,12.9179688z"/><path class="st0" d="M22.0439453,13.65625c0.2275391,0.5996094,0.7978516,0.96875,1.4033203,0.96875   c0.1762695,0,0.3564453-0.03125,0.53125-0.0976562c0.7744141-0.2929688,1.1645508-1.1591797,0.8710938-1.9335938l-2.3217773-6.125   c-0.2939453-0.7744141-1.1601562-1.1660156-1.9345703-0.8710938C19.8188477,5.890625,19.4287109,6.7568359,19.722168,7.53125   L22.0439453,13.65625z"/><path class="st0" d="M11.6079102,12.5810547l6.25,4.625C18.1259766,17.4042969,18.4389648,17.5,18.7490234,17.5   c0.4589844,0,0.9125977-0.2099609,1.206543-0.6074219c0.4931641-0.6660156,0.3525391-1.6054688-0.3134766-2.0986328l-6.25-4.625   c-0.6645508-0.4912109-1.6049805-0.3515625-2.0976562,0.3134766   C10.8012695,11.1484375,10.9418945,12.0878906,11.6079102,12.5810547z"/></g><text x="0" y="115" fill="#000000" font-size="5px" font-weight="bold" font-family="'Helvetica Neue', Helvetica, Arial-Unicode, Arial, Sans-serif">Created by Artem  Kovyazin</text><text x="0" y="120" fill="#000000" font-size="5px" font-weight="bold" font-family="'Helvetica Neue', Helvetica, Arial-Unicode, Arial, Sans-serif">from the Noun Project</text></svg>