<svg xmlns="http://www.w3.org/2000/svg" xmlns:xlink="http://www.w3.org/1999/xlink" xml:space="preserve" version="1.1" style="shape-rendering:geometricPrecision;text-rendering:geometricPrecision;image-rendering:optimizeQuality;" viewBox="0 0 297 260" x="0px" y="0px" fill-rule="evenodd" clip-rule="evenodd"><defs><style type="text/css">
   
    .fil0 {fill:black}
   
  </style></defs><g><path class="fil0" d="M149 208c45,0 84,-29 98,-69 60,-16 71,-38 4,-55 -9,-48 -51,-84 -102,-84 -50,0 -92,36 -102,84 -69,17 -58,39 4,55 15,40 53,69 98,69zm102 -84c3,-12 3,-25 1,-37 49,12 47,26 -1,37zm-204 -37c-2,12 -2,25 0,38 -49,-12 -51,-27 0,-38zm193 53c-57,13 -125,13 -181,1 14,35 49,61 90,61 41,0 76,-26 91,-62zm-186 -14c58,13 132,13 190,0 15,-61 -32,-120 -95,-120 -63,0 -109,59 -95,120z"/></g><text x="0" y="223" fill="#000000" font-size="5px" font-weight="bold" font-family="'Helvetica Neue', Helvetica, Arial-Unicode, Arial, Sans-serif">Created by Deni Santoso</text><text x="0" y="228" fill="#000000" font-size="5px" font-weight="bold" font-family="'Helvetica Neue', Helvetica, Arial-Unicode, Arial, Sans-serif">from the Noun Project</text></svg>