<svg xmlns:xlink="http://www.w3.org/1999/xlink" xmlns="http://www.w3.org/2000/svg" stroke-width="0.501" stroke-linejoin="bevel" fill-rule="evenodd" version="1.1" overflow="visible" viewBox="0 0 93.75 117.1875" x="0px" y="0px"><g fill="none" stroke="black" font-family="Times New Roman" font-size="16" transform="scale(1 -1)"><g transform="translate(0 -93.75)"><g><path d="M 21.332,19.286 C 21.305,19.392 21.284,19.5 21.267,19.607 L 20.809,22.577 L 20.322,22.528 C 13.668,22.528 8.271,27.925 8.271,34.579 C 8.271,35.41 8.355,36.222 8.515,37.006 L 8.83,38.02 L 8.538,38.404 C 5.477,43.329 3.805,49.227 3.805,56.288 C 3.805,77.367 23.656,93.54 46.875,93.54 C 70.093,93.54 89.945,77.367 89.945,56.288 C 89.945,49.227 88.272,43.329 85.21,38.404 L 84.936,38.044 L 85.258,37.007 C 85.418,36.223 85.503,35.411 85.503,34.58 C 85.503,27.926 80.105,22.529 73.452,22.529 L 72.939,22.58 L 72.482,19.607 C 72.465,19.5 72.444,19.392 72.417,19.286 C 69.037,5.7 59.552,0.21 48.66,0.21 L 45.09,0.21 C 34.197,0.21 24.712,5.7 21.332,19.286 Z M 68.937,20.153 L 69.97,26.863 C 71.032,26.383 72.211,26.116 73.452,26.116 C 78.124,26.116 81.916,29.908 81.916,34.58 C 81.916,35.998 81.566,37.335 80.949,38.509 C 84.443,43.226 86.358,49.035 86.358,56.288 C 86.358,74.871 68.67,89.953 46.875,89.953 C 25.08,89.953 7.392,74.871 7.392,56.288 C 7.392,49.025 9.312,43.211 12.815,38.49 C 12.203,37.32 11.858,35.989 11.858,34.579 C 11.858,29.907 15.65,26.115 20.322,26.115 C 21.554,26.115 22.725,26.378 23.782,26.853 L 24.813,20.153 C 27.758,8.317 35.683,3.797 45.09,3.797 L 48.66,3.797 C 58.067,3.797 65.992,8.317 68.937,20.153 Z" stroke="none" fill="#000000" stroke-width="3.588" stroke-linejoin="round" marker-start="none" marker-end="none" stroke-miterlimit="79.8403193612775"/><path d="M 50.434,35.004 L 49.707,36.259 C 48.062,39.111 45.387,39.111 43.741,36.261 L 43.016,35.004 C 41.369,32.154 42.706,29.838 45.999,29.838 L 47.448,29.836 C 50.741,29.836 52.078,32.152 50.434,35.004 Z" fill="#000000" stroke="none" stroke-width="0.822" stroke-linecap="round" stroke-linejoin="miter" marker-start="none" marker-end="none" stroke-miterlimit="79.8403193612775"/><path d="M 43.276,15.28 C 42.269,15.516 41.643,16.526 41.879,17.534 C 42.115,18.541 43.125,19.167 44.133,18.931 C 47.017,18.254 50.64,18.839 53.976,20.285 C 57.327,21.737 60.016,23.896 61.208,25.963 C 61.726,26.86 62.873,27.168 63.769,26.651 C 64.666,26.133 64.974,24.986 64.457,24.09 C 62.721,21.081 59.25,18.484 55.468,16.844 C 51.67,15.198 47.193,14.361 43.276,15.28 Z" stroke-width="0.5" stroke="none" fill="#000000" fill-rule="evenodd" marker-start="none" marker-end="none" stroke-miterlimit="79.8403193612775"/><path d="M 48.832,45.647 C 49.329,36.793 56.933,30.005 65.812,30.499 C 74.688,30.993 81.494,38.583 81,47.44 C 80.772,51.558 79.453,55.769 76.286,57.927 C 73.151,60.064 68.911,58.698 64.912,58.476 C 60.388,58.228 55.947,59.64 52.771,57.091 C 49.626,54.566 48.59,49.997 48.832,45.647 Z" fill="#000000" stroke="none" stroke-width="0.461" stroke-linejoin="round" stroke-linecap="round" marker-start="none" marker-end="none" stroke-miterlimit="79.8403193612775"/><path d="M 44.617,45.647 C 44.12,36.793 36.516,30.005 27.637,30.499 C 18.761,30.993 11.955,38.583 12.449,47.44 C 12.677,51.558 13.996,55.769 17.163,57.927 C 20.298,60.064 24.538,58.698 28.537,58.476 C 33.061,58.228 37.502,59.64 40.678,57.091 C 43.823,54.566 44.859,49.997 44.617,45.647 Z" fill="#000000" stroke="none" stroke-width="0.461" stroke-linejoin="round" stroke-linecap="round" marker-start="none" marker-end="none" stroke-miterlimit="79.8403193612775"/><path d="M 36.409,51.682 C 36.409,53.337 37.753,54.682 39.409,54.682 L 51.567,54.682 C 53.222,54.682 54.567,53.337 54.567,51.682 C 54.567,50.026 53.222,48.682 51.567,48.682 L 39.409,48.682 C 37.753,48.682 36.409,50.026 36.409,51.682 Z" stroke-width="0.5" stroke="none" fill="#000000" fill-rule="evenodd" marker-start="none" marker-end="none" stroke-miterlimit="79.8403193612775"/></g></g></g></svg>
