<svg xmlns="http://www.w3.org/2000/svg" xmlns:xlink="http://www.w3.org/1999/xlink" version="1.1" x="0px" y="0px" viewBox="0 0 64 80" enable-background="new 0 0 64 64" xml:space="preserve"><path fill="#000000" d="M34.2,63.5c0.2,0.3,0.5,0.5,0.8,0.5h22c0.3,0,0.7-0.2,0.8-0.5s0.2-0.7,0.1-1l-7-15C50.7,47.2,50.4,47,50,47  h-3V35.4l1.3-0.4c0.5-0.2,0.8-0.7,0.6-1.3c-0.2-0.5-0.7-0.8-1.3-0.6L47,33.3V25c0-0.6-0.4-1-1-1s-1,0.4-1,1v8.9l-2.2,0.7L41,21.9  c0-0.3-0.2-0.6-0.5-0.8L34,17.9V17v-5h5c0.6,0,1-0.4,1-1s-0.4-1-1-1h-5.2l-1.6-6.6l2.4-1.6c0.4-0.2,0.5-0.7,0.4-1.1S34.4,0,34,0h-6  c-0.4,0-0.8,0.2-0.9,0.6L23.3,10H19c-0.6,0-1,0.4-1,1s0.4,1,1,1h5v5v1.7L18.8,20c-0.1,0-0.1,0.1-0.2,0.1c0,0,0,0-0.1,0  c-0.1,0.1-0.2,0.1-0.3,0.2c0,0,0,0.1,0,0.1c-0.1,0.1-0.1,0.2-0.1,0.2c0,0,0,0,0,0.1l-7,26c-0.1,0.2,0,0.5,0.1,0.7l1,2  c0.2,0.4,0.5,0.6,0.9,0.6c0.2,0,0.3,0,0.4-0.1c0.5-0.2,0.7-0.8,0.4-1.3l-0.8-1.7l3.8-14.2L14,62.9c-0.1,0.5,0.4,1,0.9,1.1  c0,0,0.1,0,0.1,0c0.5,0,0.9-0.4,1-0.9l3.9-41.3l4.1-1V24c0,0.6,0.4,1,1,1s1-0.4,1-1v-3.7l1.2-0.3c0,0,0,0,0,0l1.1,0.8  c0.2,0.1,0.4,0.2,0.6,0.2s0.4-0.1,0.6-0.2l2.3-1.7l0.1,0V24c0,0.6,0.4,1,1,1s1-0.4,1-1v-3.9l5.1,2.5L41,36.1c0,0.3,0.2,0.6,0.5,0.7  c0.2,0.1,0.3,0.1,0.5,0.1c0.1,0,0.2,0,0.3-0.1l2.7-0.9V47h-3c-0.4,0-0.7,0.2-0.9,0.6l-7,15C33.9,62.9,34,63.2,34.2,63.5z M28.7,2h2  l-0.3,0.2c-0.4,0.2-0.5,0.7-0.4,1.1l1.7,6.8h-6.2L28.7,2z M29,18.8l-3-2.2V12h6v4.5L29,18.8z M42.6,49H43v2c0,0.6,0.4,1,1,1  s1-0.4,1-1v-2h2v2c0,0.6,0.4,1,1,1s1-0.4,1-1v-2h0.4l6.1,13H53v-4c0-0.6-0.4-1-1-1s-1,0.4-1,1v4h-2v-2c0-0.6-0.4-1-1-1s-1,0.4-1,1v2  h-2v-5c0-0.6-0.4-1-1-1s-1,0.4-1,1v5h-2v-2c0-0.6-0.4-1-1-1s-1,0.4-1,1v2h-2.4L42.6,49z"/><path fill="#000000" d="M47,1c0-0.6-0.4-1-1-1s-1,0.4-1,1v14c0,0.6,0.4,1,1,1s1-0.4,1-1V1z"/><path fill="#000000" d="M46,18c-0.6,0-1,0.4-1,1v2c0,0.6,0.4,1,1,1s1-0.4,1-1v-2C47,18.4,46.6,18,46,18z"/><path fill="#000000" d="M39,49c0,0,0.1,0,0.1,0c0.5-0.1,0.9-0.6,0.9-1.1l-2-16c-0.1-0.5-0.6-0.9-1.1-0.9c-0.5,0.1-0.9,0.6-0.9,1.1  l2,16C38.1,48.6,38.5,49,39,49z"/><path fill="#000000" d="M29,31c-0.6,0-1,0.4-1,1v31c0,0.6,0.4,1,1,1s1-0.4,1-1V32C30,31.4,29.6,31,29,31z"/><path fill="#000000" d="M30,28c0-0.6-0.4-1-1-1s-1,0.4-1,1v1c0,0.6,0.4,1,1,1s1-0.4,1-1V28z"/><path fill="#000000" d="M30,24c0-0.6-0.4-1-1-1s-1,0.4-1,1v1c0,0.6,0.4,1,1,1s1-0.4,1-1V24z"/><path fill="#000000" d="M29,7h-1c-0.6,0-1,0.4-1,1s0.4,1,1,1h1c0.6,0,1-0.4,1-1S29.6,7,29,7z"/><path fill="#000000" d="M48,57c0.6,0,1-0.4,1-1v-1c0-0.6-0.4-1-1-1s-1,0.4-1,1v1C47,56.6,47.4,57,48,57z"/></svg>
