<svg xmlns="http://www.w3.org/2000/svg" data-name="Layer 1" viewBox="0 0 64 80" x="0px" y="0px"><title>candid-frank-sincere-straightforward-honest</title><rect x="4" y="2" width="2" height="2"/><rect x="4" y="6" width="2" height="2"/><rect x="6" y="4" width="2" height="2"/><rect x="2" y="4" width="2" height="2"/><rect x="58" y="2" width="2" height="2"/><rect x="58" y="6" width="2" height="2"/><rect x="60" y="4" width="2" height="2"/><rect x="56" y="4" width="2" height="2"/><path d="M10,50a8.00917,8.00917,0,0,0,8-8V41c0-.01495-.00781-.02734-.00848-.04211a.98764.98764,0,0,0-.06275-.31043c-.00616-.01617-.00873-.0332-.01568-.049-.00306-.0069-.00361-.0144-.00684-.0213L11.57025,27H24V37.93213L21.00928,59.86475a.99969.99969,0,0,0,.82617,1.12158l6,1a.99763.99763,0,0,0,1.147-.79932L32,45.34424,35.01758,61.187a.99981.99981,0,0,0,1.147.79932l6-1a.99969.99969,0,0,0,.82617-1.12158L40,37.93213V27H52.42975l-6.336,13.57715c-.00323.0069-.00378.0144-.00684.0213-.007.01581-.00952.03284-.01568.049a.98764.98764,0,0,0-.06275.31043C46.00781,40.97266,46,40.98505,46,41v1a8,8,0,0,0,16,0V41c0-.01495-.00781-.02734-.00848-.04211a.98764.98764,0,0,0-.06275-.31043c-.00616-.01617-.00873-.0332-.01568-.049-.00306-.0069-.00361-.0144-.00684-.0213L55.499,26.84735A.98571.98571,0,0,0,56,26V21a.99957.99957,0,0,0-.95947-.999L35.97168,19.227l5.332-5.69971a6.43962,6.43962,0,0,0,0-8.69482,5.66061,5.66061,0,0,0-8.33984,0l-.9917,1.05566L30.981,4.83252a5.66117,5.66117,0,0,0-8.34033,0,5.93583,5.93583,0,0,0-1.24024,2.01392,6.53761,6.53761,0,0,0,1.34961,6.676l5.36816,5.79089-19.206,1.69056A1.00006,1.00006,0,0,0,8,22v4a.98571.98571,0,0,0,.501.84735L2.09375,40.57715c-.00323.0069-.00378.0144-.00684.0213-.007.01581-.00952.03284-.01568.049a.98764.98764,0,0,0-.06275.31043C2.00781,40.97266,2,40.98505,2,41v1A8.00917,8.00917,0,0,0,10,50Zm44-2a6.00657,6.00657,0,0,1-6-6H60A6.00657,6.00657,0,0,1,54,48Zm-5.42969-8L54,28.36475,59.42969,40ZM29.523,6.20166,31.24316,8.0332a1.00013,1.00013,0,0,0,1.458,0l1.72071-1.83154a3.74479,3.74479,0,0,1,5.42382,0,4.17192,4.17192,0,0,1,.50629.66,4.42556,4.42556,0,0,1-.50775,5.298l-.021.0224-7.84619,8.35211-.982-1.05939c-.00678-.00781-.01038-.01745-.01746-.02508L24.2124,12.1582a4.42875,4.42875,0,0,1-.51886-.67108,4.38448,4.38448,0,0,1,.40509-5.28546A3.74537,3.74537,0,0,1,29.523,6.20166ZM10,22.916l19.83875-1.74659,1.4,1.51026A1.2088,1.2088,0,0,0,31.97217,23a1.00079,1.00079,0,0,0,.729-.31543l1.43775-1.53046L54,21.96045V25H39a1,1,0,0,0-1,1V38a.96313.96313,0,0,0,.00928.13525l2.86865,21.03809-4.07861.67969-3.8169-20.04a1.00007,1.00007,0,0,0-1.96484,0l-3.8169,20.04-4.07861-.67969,2.86865-21.03809A.96313.96313,0,0,0,26,38V26a1,1,0,0,0-1-1H10Zm0,5.44873L15.42969,40H4.57031ZM16,42A6,6,0,0,1,4,42Z"/><path d="M29.5,13.5h-1a3.5,3.5,0,0,0,7,0h-1a2.5,2.5,0,0,1-5,0Z"/><path d="M28.5,9.75a1.0013,1.0013,0,0,1,1,1h1a2,2,0,0,0-4,0h1A1.0013,1.0013,0,0,1,28.5,9.75Z"/><path d="M35.5,9.75a1.0013,1.0013,0,0,1,1,1h1a2,2,0,0,0-4,0h1A1.0013,1.0013,0,0,1,35.5,9.75Z"/><rect x="60" y="60" width="2" height="2"/><rect x="2" y="60" width="2" height="2"/><text x="0" y="79" fill="#000000" font-size="5px" font-weight="bold" font-family="'Helvetica Neue', Helvetica, Arial-Unicode, Arial, Sans-serif">Created by Nithinan Tatah</text><text x="0" y="84" fill="#000000" font-size="5px" font-weight="bold" font-family="'Helvetica Neue', Helvetica, Arial-Unicode, Arial, Sans-serif">from the Noun Project</text></svg>