<svg xmlns="http://www.w3.org/2000/svg" xmlns:xlink="http://www.w3.org/1999/xlink" version="1.1" x="0px" y="0px" viewBox="0 0 100 125" style="enable-background:new 0 0 100 100;" xml:space="preserve"><path d="M62.1,17.9C48.6,12.8,32.8,17,23.6,28.1c-7.7,9.4-9.8,22.3-5.8,33.5c0,0.1,0.1,0.2,0.1,0.3c0.7,2,1.7,3.9,2.8,5.8  C28,79.9,42.5,86.3,56.5,83.7C72.6,80.6,84.1,66.2,84.3,50C84.1,35.8,75.4,23,62.1,17.9z M74,36.7c1.2,0,1.2,1.9,0,1.9  C72.8,38.5,72.8,36.7,74,36.7z M66,27.4c1.2,0,1.2,1.9,0,1.9C64.8,29.2,64.8,27.4,66,27.4z M60.6,35.9c1.2,0,1.2,1.9,0,1.9  C59.4,37.7,59.4,35.9,60.6,35.9z M67.4,44.1c-0.8,1.2-1.5,2.5-1.3,3.7c0.4,2.5,4.1,3.9,5.3,6c0,0.1,0.1,0.1,0.1,0.2  c0.4,0.8,0.4,1.7-0.3,2.8c-1.3-1.1-2.6-2.2-3.9-3.4c-0.2-0.2-0.6-0.3-0.9-0.3c-0.2,0-0.3,0.2-0.5,0.3c-0.6,0.7-1.3,1.2-2,1.8  c-1.6-1.6-3.2-3.2-4.8-4.7C62.2,48.9,64.9,46.5,67.4,44.1z M62.6,62.3c0.2,1.2,0.7,2,1.6,2.7c0.9,0.8,3.7,2.6,3,3.6  c-0.5,0.9-2.8,1.6-3.6,2.1c-1.8,1-3.6,1.9-5.4,2.9c-0.1,0.1-0.2,0.1-0.3,0.2c-2.7-2.4-5.3-4.7-8-7c0.9-0.4,3.5-1.7,4.1-2  c2.5-1.4,5-3,7.3-4.8c0.7-0.6,1.4-1.2,2.1-1.8C62.9,59.5,62.5,60.9,62.6,62.3z M57.1,40.4c1.2,0,1.2,1.9,0,1.9  C55.9,42.3,55.9,40.4,57.1,40.4z M53.2,21.8c1.2,0,1.2,1.9,0,1.9C52,23.7,52,21.8,53.2,21.8z M52.2,50.2c2.2,2.2,4.4,4.3,6.7,6.5  c0.9,0.8,2.2-0.5,1.3-1.3c-2.3-2.2-7-6.9-7-6.9s0.3-0.6,0.5-0.9c3,3,5.9,5.9,8.9,8.9c-0.5,0.4-0.9,0.8-1.4,1.2  c-1.4,1.1-2.8,2.2-4.3,3.1c0.4-1.3,0.3-2.6-0.7-3.6c-1.5-1.4-5.3-1.2-5.2-3.6c0-0.2,0-0.5,0.1-0.7c0.9,0.9,1.8,1.7,2.7,2.6  c0.9,0.8,2.2-0.5,1.3-1.3c-1-1-3.3-3.2-3.3-3.2S52.1,50.4,52.2,50.2z M51.2,48.3c-1.3,2.3-3,5.2-1.9,7.1c0.6,1.2,2.2,1.7,3.4,2.2  c1.3,0.5,2.6,0.7,2.4,2.4c-0.1,1-1.1,2.4-2.1,3.1c-1.4,1-4.5,2.3-4.5,2.3s-6.3-5.5-9.5-8.3c0.1,0,0.2-0.1,0.2-0.1  C43.4,54.4,47.3,51.3,51.2,48.3z M47.2,29.7c1.2,0,1.2,1.9,0,1.9C46,31.6,46,29.7,47.2,29.7z M45,44.1c1.2,0,1.2,1.9,0,1.9  C43.8,46,43.8,44.1,45,44.1z M38.9,34c1.2,0,1.2,1.9,0,1.9C37.7,35.9,37.7,34,38.9,34z M35.8,23.9c1.2,0,1.2,1.9,0,1.9  C34.6,25.7,34.6,23.9,35.8,23.9z M31.5,39.4c0.2-0.1,0.6-0.3,0.9-0.4c0.4-0.1,0.8,0.4,0.5,0.7c-0.8,0.8-1.5,2.4-0.8,3.7  c0.8,1.3,2.4,1.6,3.7,1.3c0.4-0.1,0.7,0.5,0.4,0.8c-0.4,0.4-0.8,0.7-1.4,0.9c-1.6,0.6-3.4,0-4.5-1.3C28.9,43.1,29.6,40.5,31.5,39.4z   M25,37.9c1.2,0,1.2,1.9,0,1.9C23.8,39.8,23.8,37.9,25,37.9z M22.8,48.7c1.2,0,1.2,1.9,0,1.9C21.6,50.5,21.6,48.7,22.8,48.7z   M24.9,70.6c-2.1-2.6-3.8-5.5-5-8.6c3.8-1.5,7.3-4.2,10.5-6.8c-0.7,1.4-1.5,2.9-1.6,4.4c-0.2,2.2,1.8,4,3.2,5.5c0.5,0.5,2.3,2,3,3.1  c0,0,0,0.1,0.1,0.1c0.2,0.3,0.3,0.5,0.3,0.7c-0.2,0.9-2.7,1.3-3.4,1.4c-2,0.5-4.1,0.8-6.2,1.2C25.5,71.3,25.2,70.9,24.9,70.6z   M46,82.1c-6.9-0.9-13.5-3.9-18.6-8.9c1.1-0.1,2.5-0.3,3.9-0.6c1,1,2.1,2,3.1,3c0.9,0.8,2.2-0.5,1.3-1.3c-0.8-0.7-1.5-1.5-2.3-2.2  c0.4-0.1,0.7-0.2,1-0.3c1.9,1.9,3.9,3.8,5.8,5.7c0.9,0.8,2.2-0.5,1.3-1.3c-1.8-1.8-3.6-3.5-5.4-5.3c0.3-0.2,0.5-0.5,0.7-0.8  c3.1,3.1,6.3,6.2,9.4,9.4c0.9,0.8,2.2-0.5,1.3-1.3C44,74.5,33.3,63.9,32.4,62.8c-0.9-1.1-1.4-1.9-1.5-2.7c3,2.6,6,5.3,9,7.9  c0.9,0.8,2.2-0.5,1.3-1.3c-3.3-2.9-10-8.7-10-8.7l0.5-1.1c0,0,5,4.5,7.5,6.7c0.9,0.8,2.2-0.5,1.3-1.3c-2.7-2.4-5.3-4.8-8-7.1  c0.1-0.3,0.3-0.6,0.4-0.8c7.7,6.9,15.6,13.7,23.3,20.5c-3.6,2.1-7,4.4-10.2,7.2C46,82,46,82.1,46,82.1z M60.8,80.6  c-4,1.4-8.2,2-12.3,1.8c2.1-1.8,4.3-3.3,6.7-4.8c0.6,0.6,1.2,1.1,1.8,1.7c0.9,0.8,2.2-0.5,1.3-1.3c-0.5-0.5-1-0.9-1.5-1.4  c0.3-0.2,0.6-0.3,0.9-0.5c0,0,0,0.1,0.1,0.1c1,1,2.1,2,3.1,3c0.9,0.8,2.2-0.5,1.3-1.3c-0.9-0.9-1.9-1.8-2.8-2.7  c0.3-0.2,0.7-0.4,1-0.5c0,0,0.1,0.1,0.1,0.1c1.4,1.4,2.8,2.8,4.3,4.2C63.5,79.5,62.2,80.1,60.8,80.6z M66.4,77.9  c-1.4-1.4-2.9-2.8-4.3-4.2c2.4-1.1,5.2-2.2,6.8-4c0.1-0.1,0.1-0.2,0.2-0.2c0.4,0.4,0.9,0.9,1.3,1.3c0.9,0.8,2.2-0.5,1.3-1.3  c-1-1-2.1-2-3.1-3c0,0,0,0,0,0c-0.5-0.5-1-1-1.5-1.5c-1.5-1.3-2.7-2.1-2.5-3.9c2.9,2.6,5.8,5.1,8.7,7.7c0.9,0.8,2.2-0.5,1.3-1.3  c-3.2-2.8-6.4-5.6-9.5-8.4c0.1-0.4,0.3-0.7,0.5-1.1c2.3,2.1,4.7,4.2,7,6.3c0.9,0.8,2.2-0.5,1.3-1.3c-2.5-2.2-4.9-4.4-7.4-6.6  c0.2-0.3,0.3-0.5,0.5-0.8c3.8,3.3,7.7,6.5,11.5,9.7C75.7,70.4,71.6,74.9,66.4,77.9z M72.7,57.9c0.1-0.1,0.1-0.1,0.2-0.2  c0.4-0.6,0.7-1.2,0.9-1.7c1,1,2,1.9,3,2.9c0.9,0.8,2.2-0.5,1.3-1.3c-1.7-1.6-6.3-6.2-7.1-7c-1.3-1.3-2.8-2.1-2.6-3.6  c0.8,0.8,1.6,1.5,2.4,2.3c0.9,0.8,2.2-0.5,1.3-1.3c-0.9-0.8-2.9-2.7-2.9-2.7s0.4-0.5,0.6-0.8c1.9,1.9,3.9,3.8,5.8,5.7  c0.9,0.8,2.2-0.5,1.3-1.3c-2-2-4.1-4-6.1-6c0.2-0.3,0.3-0.6,0.4-0.9c3.6,3.6,11,10.7,11.1,10.8c-0.3,3.8-1.3,7.5-2.9,10.9  C77.1,61.6,74.9,59.8,72.7,57.9z"/><text x="0" y="115" fill="#000000" font-size="5px" font-weight="bold" font-family="'Helvetica Neue', Helvetica, Arial-Unicode, Arial, Sans-serif">Created by Tatina Vazest</text><text x="0" y="120" fill="#000000" font-size="5px" font-weight="bold" font-family="'Helvetica Neue', Helvetica, Arial-Unicode, Arial, Sans-serif">from the Noun Project</text></svg>