<svg xmlns="http://www.w3.org/2000/svg" xmlns:xlink="http://www.w3.org/1999/xlink" version="1.1" x="0px" y="0px" viewBox="0 0 512 640" enable-background="new 0 0 512 512" xml:space="preserve"><path d="M433.753,309.201c-4.612-35.172-37.479-43.82-37.479-43.82c-18.156-7.121-17.629-23.033-14.568-34.166  c1.861-6.771-2.098-13.742-8.896-15.505c-6.5-1.685-13.102,2.109-15.153,8.503c-15.438,48.123,23.049,59.619,23.049,59.619  c32.289,11.531,29.888,31.091,29.888,31.091c0,47.607-31.131,56.257-46.66,57.61c-6.287-127.108-121.987-122.342-121.987-122.342  l-1.401-76.311c43.272-15.686,46.843-51.849,46.23-67.485c-0.162-4.151-3.547-7.426-7.701-7.426h-18.926l-9.068-6.736  c-9.966-7.403-22.233-11.034-34.623-10.245l-50.658,3.223c-6.046,0.385-11.769,3.622-14.529,9.015  c-7.565,14.781,12.639,25.747,12.639,25.747C79.572,281.695,77.421,406.314,77.421,406.314v0.35c0,12.954,10.5,23.454,23.454,23.454  h75.961c0,0,13.288-1.104,18.958-13.048c0.134-0.289,0.259-0.583,0.384-0.879c0.267-0.629,0.513-1.286,0.736-1.973  c0.077-0.232,0.164-0.457,0.234-0.691c0.136-0.465,0.223-0.986,0.337-1.477v-1.73c0-13.336-10.851-24.184-24.187-24.184h-54.993  l8.531-46.128l10.158,1.876l-6.275,33.922h42.579c14.866,0,27.529,9.463,32.378,22.668c5.904-11.244,14.599-15.569,20.775-17.184  c1.178-0.31,2.064-1.51,2.153-2.922c1.261-19.859,7.889-34.987,19.696-44.965c17.246-14.569,39.063-12.465,39.987-12.377  l-1.063,10.275c-0.175-0.01-18.521-1.681-32.341,10.064c-9.524,8.094-14.898,20.761-15.971,37.654  c-0.375,5.895-4.334,10.82-9.851,12.263c-3.42,0.894-7.916,3.077-11.741,8.135c-1.042,1.377-2.027,2.978-2.933,4.821  c-0.125,0.665-0.241,1.356-0.343,2.074c-0.275,1.929-0.435,4.017-0.376,6.107c1.168,5.698,4.599,13.861,14.415,17.696h49.794h18.8  h6.545h8.369h16.747c18.865,0,34.412-14.801,35.339-33.644h-0.01c0.002-0.01,0.002-0.021,0.004-0.03  C447.406,382.609,433.753,309.201,433.753,309.201z M226.582,126.29c-4.979,0-9.015-4.036-9.015-9.015s4.036-9.015,9.015-9.015  s9.015,4.036,9.015,9.015S231.561,126.29,226.582,126.29z"/><text x="0" y="527" fill="#000000" font-size="5px" font-weight="bold" font-family="'Helvetica Neue', Helvetica, Arial-Unicode, Arial, Sans-serif">Created by Chanut is Industries</text><text x="0" y="532" fill="#000000" font-size="5px" font-weight="bold" font-family="'Helvetica Neue', Helvetica, Arial-Unicode, Arial, Sans-serif">from the Noun Project</text></svg>